# xmcd CD database file
#
# Track frame offsets:
#	150
#	9287
#	20915
#	33225
#	45985
#	59705
#	69682
#	79062
#	92645
#	109480
#	125117
#	138087
#
# Disc length: 1985 seconds
#
# Revision: 2
# Processed by: cddbd v1.4PL0 Copyright (c) Steve Scherf et al.
# Submitted via: CDex 1.50
#
DISCID=a307bf0c
DTITLE=Patsy Cline - 12 Greatest Hits
DYEAR=1988
DGENRE=Country
TTITLE0=Walkin' After Midnight
TTITLE1=Sweet Dreams (Of You)
TTITLE2=Crazy
TTITLE3=I Fall To Pieces
TTITLE4=So Wrong
TTITLE5=Strange
TTITLE6=Back In Baby's Arms
TTITLE7=She's Got You
TTITLE8=Faded Love
TTITLE9=Why Can't He Be You
TTITLE10=You're Stronger Than Me
TTITLE11=Leavin' On Your Mind
EXTD=Produced by Owen Bradley.\nRemastered and transferred to digital by: Glenn Meadows,\nMilan Bogdan, Jim Loyd and Benny Quinn.\n\nMCA Records MCAD-12.  1988. YEAR: 1988
EXTT0=
EXTT1=
EXTT2=
EXTT3=
EXTT4=
EXTT5=
EXTT6=
EXTT7=
EXTT8=
EXTT9=
EXTT10=
EXTT11=
PLAYORDER=
